{
  "accessors": [
    {
      "bufferView": 1,
      "componentType": 5126,
      "count": 833,
      "max": [
        0.058159101754426956,
        0.18189699947834015,
        0.05780079960823059
      ],
      "min": [
        -0.09314659982919693,
        0.03362039849162102,
        -0.056644000113010406
      ],
      "type": "VEC3"
    },
    {
      "bufferView": 1,
      "byteOffset": 9996,
      "componentType": 5126,
      "count": 833,
      "max": [
        0.9994405508041382,
        0.9979832172393799,
        0.9974262714385986
      ],
      "min": [
        -0.9992214441299438,
        -0.99997878074646,
        -0.9995951056480408
      ],
      "type": "VEC3"
    },
    {
      "bufferView": 0,
      "componentType": 5125,
      "count": 2844,
      "type": "SCALAR"
    }
  ],
  "asset": {
    "extras": {
      "author": "3D graphics 101 (https://sketchfab.com/3dgraphics)",
      "license": "CC-BY-NC-4.0 (http://creativecommons.org/licenses/by-nc/4.0/)",
      "source": "https://sketchfab.com/3d-models/stanford-bunny-zipper-reconstruction-res-4-882c1f5eeef54f0a8d529cb975364a28",
      "title": "Stanford Bunny (Zipper reconstruction, res 4)"
    },
    "generator": "Sketchfab-11.51.1",
    "version": "2.0"
  },
  "bufferViews": [
    {
      "buffer": 0,
      "byteLength": 11376,
      "name": "floatBufferViews",
      "target": 34963
    },
    {
      "buffer": 0,
      "byteLength": 19992,
      "byteOffset": 11376,
      "byteStride": 12,
      "name": "floatBufferViews",
      "target": 34962
    }
  ],
  "buffers": [
    {
      "byteLength": 31368,
      "uri": "scene.bin"
    }
  ],
  "materials": [
    {
      "doubleSided": true,
      "name": "Scene_-_Root",
      "pbrMetallicRoughness": {
        "baseColorFactor": [
          0.5,
          0.5,
          0.5,
          1.0
        ],
        "metallicFactor": 0.0,
        "roughnessFactor": 0.9
      }
    }
  ],
  "meshes": [
    {
      "name": "Object_0",
      "primitives": [
        {
          "attributes": {
            "NORMAL": 1,
            "POSITION": 0
          },
          "indices": 2,
          "material": 0,
          "mode": 4
        }
      ]
    }
  ],
  "nodes": [
    {
      "children": [
        1
      ],
      "matrix": [
        1.0,
        0.0,
        0.0,
        0.0,
        0.0,
        1.0,
        2.220446049250313e-16,
        0.0,
        0.0,
        -2.220446049250313e-16,
        1.0,
        0.0,
        0.0,
        0.0,
        0.0,
        1.0
      ],
      "name": "Sketchfab_model"
    },
    {
      "children": [
        2
      ],
      "name": "Geode"
    },
    {
      "mesh": 0,
      "name": "Object_2"
    }
  ],
  "scene": 0,
  "scenes": [
    {
      "name": "Sketchfab_Scene",
      "nodes": [
        0
      ]
    }
  ]
}
